<svg id="svg" version="1.1" xmlns="http://www.w3.org/2000/svg" xmlns:xlink="http://www.w3.org/1999/xlink" width="400" height="172.8643216080402" viewBox="0, 0, 400,172.8643216080402"><g id="svgg"><path id="path0" d="M139.256 23.086 C 138.977 23.403,138.934 151.925,139.213 152.097 C 139.308 152.156,139.386 152.319,139.386 152.460 C 139.386 152.917,139.773 153.205,140.035 152.942 C 140.160 152.818,140.551 152.664,140.905 152.601 C 141.617 152.473,142.954 151.917,143.046 151.710 C 143.197 151.369,144.416 150.669,145.352 150.387 C 146.025 150.184,146.616 149.857,147.032 149.457 C 147.704 148.812,148.660 148.386,149.449 148.381 C 149.763 148.380,150.160 148.137,150.668 147.636 C 151.445 146.870,151.847 146.663,153.274 146.295 C 153.830 146.151,154.350 145.845,154.841 145.370 C 155.559 144.678,156.584 144.228,157.443 144.228 C 157.716 144.228,158.043 144.013,158.367 143.619 C 158.881 142.996,159.985 142.326,160.500 142.326 C 161.045 142.326,162.128 141.769,162.559 141.266 C 162.989 140.765,164.184 140.233,165.389 140.007 C 165.735 139.942,166.018 139.827,166.018 139.751 C 166.018 139.342,166.832 138.808,168.191 138.325 C 169.260 137.945,169.878 137.612,170.255 137.213 C 170.551 136.899,171.022 136.593,171.302 136.532 C 172.236 136.329,173.187 135.859,173.973 135.211 C 174.404 134.857,175.042 134.517,175.402 134.451 C 175.760 134.386,176.095 134.263,176.147 134.178 C 176.199 134.094,176.373 134.025,176.534 134.025 C 176.695 134.025,177.170 133.720,177.589 133.348 C 178.041 132.946,178.674 132.587,179.145 132.465 C 179.582 132.352,180.074 132.224,180.238 132.180 C 180.402 132.137,180.794 131.854,181.108 131.550 C 181.740 130.941,182.423 130.583,183.785 130.150 C 184.341 129.973,184.922 129.624,185.290 129.246 C 185.756 128.766,186.168 128.557,187.151 128.302 C 188.134 128.048,188.528 127.848,188.932 127.399 C 189.475 126.796,190.417 126.334,191.440 126.168 C 191.830 126.105,192.338 125.798,192.868 125.304 C 193.650 124.576,194.983 123.996,195.876 123.994 C 196.052 123.994,196.351 123.760,196.541 123.475 C 196.928 122.895,197.935 122.362,199.163 122.086 C 199.756 121.954,200.152 121.719,200.596 121.239 C 201.634 120.117,195.779 120.192,281.807 120.191 C 343.186 120.190,361.067 120.144,361.228 119.983 C 361.448 119.763,361.550 23.672,361.330 23.101 C 361.179 22.706,139.605 22.691,139.256 23.086 M190.143 52.001 C 190.428 52.109,190.856 52.241,191.094 52.293 C 191.332 52.346,191.837 52.662,192.218 52.996 C 192.598 53.330,192.992 53.605,193.093 53.607 C 193.836 53.620,195.257 54.735,195.498 55.493 C 195.561 55.694,195.686 55.858,195.775 55.858 C 195.863 55.858,195.936 55.975,195.936 56.118 C 195.936 56.260,196.044 56.377,196.175 56.377 C 196.795 56.377,197.405 57.784,197.748 60.009 C 197.799 60.342,198.033 61.026,198.268 61.529 C 199.468 64.107,199.369 73.721,198.117 76.178 C 197.875 76.654,197.673 77.315,197.669 77.648 C 197.651 79.096,196.789 80.934,196.127 80.934 C 196.052 80.934,195.842 81.226,195.661 81.582 C 195.230 82.430,194.893 82.761,194.151 83.071 C 193.816 83.211,193.407 83.531,193.243 83.782 C 192.670 84.656,192.095 84.826,188.256 85.259 C 187.409 85.355,186.631 85.499,186.527 85.579 C 186.097 85.910,184.069 86.152,180.934 86.246 L 177.606 86.345 177.000 86.934 L 176.394 87.522 176.395 91.448 C 176.395 94.967,176.361 95.446,176.063 96.066 C 175.880 96.446,175.593 97.093,175.426 97.503 C 174.831 98.960,174.738 98.983,169.286 99.063 C 162.609 99.161,161.383 98.924,160.744 97.406 C 160.197 96.108,160.200 53.209,160.747 52.622 C 161.648 51.654,160.946 51.695,175.875 51.752 C 185.612 51.789,189.775 51.862,190.143 52.001 M233.264 52.003 C 234.724 52.685,235.304 53.629,236.060 56.550 C 236.171 56.978,236.483 57.562,236.755 57.847 C 237.029 58.136,237.326 58.711,237.425 59.144 C 237.522 59.572,237.722 60.464,237.869 61.125 C 238.028 61.840,238.297 62.507,238.533 62.768 C 239.200 63.508,240.041 65.978,240.036 67.185 C 240.035 67.376,240.308 67.838,240.641 68.212 C 241.322 68.978,241.524 69.552,241.769 71.422 C 241.972 72.973,242.210 73.759,242.681 74.428 C 243.484 75.573,243.543 76.299,243.620 86.090 C 243.702 96.512,243.722 96.323,242.380 97.762 C 241.188 99.039,240.903 99.092,235.265 99.092 L 230.329 99.092 229.388 98.647 C 228.871 98.402,228.448 98.097,228.448 97.968 C 228.448 97.839,228.272 97.592,228.058 97.419 C 227.144 96.680,227.089 96.433,227.014 92.672 C 226.942 89.088,226.771 87.756,226.349 87.485 C 226.219 87.402,224.286 87.353,222.052 87.377 L 217.991 87.419 217.846 88.111 C 217.766 88.491,217.645 90.631,217.577 92.866 C 217.384 99.200,217.393 99.193,209.044 99.059 C 201.794 98.943,202.354 99.950,202.341 86.987 C 202.330 75.254,202.558 72.431,203.632 70.994 C 204.277 70.132,204.583 69.401,204.583 68.722 C 204.583 67.827,205.097 66.289,205.567 65.783 C 206.174 65.128,206.311 64.780,206.645 63.060 C 206.982 61.317,207.179 60.842,207.803 60.264 C 208.107 59.982,208.290 59.501,208.499 58.432 C 208.869 56.543,209.208 55.604,209.693 55.118 C 209.910 54.901,210.301 54.192,210.561 53.541 C 211.337 51.603,210.596 51.716,222.542 51.712 C 231.696 51.708,232.691 51.735,233.264 52.003 M261.157 52.054 C 262.074 52.974,262.060 52.866,262.163 59.642 L 262.259 65.975 262.793 66.753 C 263.516 67.805,263.829 68.434,264.058 69.288 C 264.205 69.837,264.365 70.047,264.738 70.177 C 265.046 70.284,265.314 70.561,265.465 70.928 C 265.824 71.801,266.267 72.088,267.092 71.982 C 268.330 71.822,268.486 71.697,268.904 70.530 C 269.139 69.874,269.560 69.156,269.950 68.742 C 271.115 67.509,271.068 67.828,271.168 60.441 C 271.271 52.822,271.221 53.102,272.630 52.259 L 273.552 51.708 279.318 51.715 C 287.704 51.726,287.595 51.614,287.588 60.182 C 287.582 67.487,287.265 70.558,286.517 70.558 C 286.442 70.558,286.381 70.738,286.381 70.959 C 286.381 71.180,286.271 71.705,286.136 72.127 C 286.002 72.548,285.848 73.087,285.795 73.325 C 285.698 73.760,284.979 74.708,284.746 74.708 C 284.562 74.708,283.973 75.453,283.966 75.694 C 283.952 76.185,283.519 76.801,282.898 77.212 C 282.531 77.454,282.231 77.776,282.231 77.926 C 282.231 78.358,281.687 79.227,280.926 80.013 C 280.541 80.410,280.050 81.111,279.834 81.570 C 279.599 82.071,279.171 82.598,278.761 82.891 C 278.387 83.158,278.080 83.471,278.080 83.585 C 278.080 84.025,277.416 85.003,276.938 85.266 C 275.904 85.835,275.433 87.848,275.362 92.002 C 275.293 96.073,275.293 96.073,274.718 96.735 C 274.481 97.008,274.193 97.442,274.080 97.699 C 273.966 97.956,273.594 98.355,273.253 98.586 L 272.633 99.006 267.013 99.006 C 258.422 99.006,258.712 99.259,258.712 91.739 L 258.712 87.529 258.150 87.143 C 257.455 86.667,256.991 86.120,256.986 85.771 C 256.982 85.462,256.048 84.393,255.781 84.393 C 255.681 84.393,255.599 84.276,255.599 84.133 C 255.599 83.990,255.534 83.874,255.454 83.874 C 255.374 83.874,255.100 83.447,254.845 82.926 C 254.590 82.405,254.071 81.692,253.692 81.341 C 253.296 80.974,252.931 80.439,252.835 80.082 C 252.743 79.740,252.499 79.344,252.293 79.203 C 251.503 78.660,251.118 78.212,250.836 77.509 C 250.666 77.083,250.335 76.656,250.041 76.482 C 249.705 76.284,249.309 75.722,248.855 74.798 C 248.480 74.035,248.011 73.311,247.813 73.188 C 246.754 72.532,246.721 72.205,246.706 62.154 C 246.691 52.097,246.630 52.703,247.730 52.023 C 248.442 51.583,260.716 51.611,261.157 52.054 M325.285 51.991 C 326.300 52.590,326.330 52.765,326.326 58.133 C 326.322 62.604,326.292 63.100,325.988 63.771 C 325.454 64.946,325.630 64.924,316.528 64.988 C 310.496 65.030,308.325 65.099,308.201 65.251 C 308.048 65.438,308.228 67.291,308.431 67.619 C 308.472 67.685,309.695 67.794,311.149 67.861 C 316.681 68.118,319.270 68.526,320.116 69.276 C 320.265 69.409,320.792 69.594,321.287 69.688 C 323.184 70.048,324.062 70.391,324.438 70.919 C 324.638 71.200,325.106 71.585,325.477 71.774 C 325.848 71.964,326.284 72.332,326.446 72.592 C 326.608 72.852,326.940 73.260,327.184 73.498 C 329.262 75.530,329.139 92.626,327.042 93.292 C 326.858 93.351,326.587 93.701,326.439 94.070 C 326.291 94.440,325.958 94.885,325.699 95.058 C 325.440 95.232,324.911 95.701,324.525 96.100 C 323.980 96.663,323.589 96.887,322.784 97.095 C 322.214 97.243,321.552 97.520,321.314 97.711 C 319.814 98.915,319.352 98.956,306.330 99.042 L 294.719 99.119 293.749 98.661 C 293.216 98.409,292.780 98.101,292.780 97.977 C 292.780 97.853,292.653 97.645,292.497 97.516 C 291.466 96.661,291.396 96.300,291.396 91.816 C 291.396 86.670,291.224 87.109,293.818 85.635 L 294.596 85.192 302.818 85.095 C 310.258 85.007,311.085 84.969,311.502 84.695 C 311.756 84.529,312.085 84.393,312.233 84.393 C 312.381 84.393,312.595 84.189,312.708 83.941 C 312.949 83.411,312.570 83.009,311.827 83.009 C 310.215 83.009,305.757 82.218,304.851 81.770 C 304.185 81.441,303.102 81.251,300.047 80.926 C 298.167 80.726,297.448 80.454,297.103 79.810 C 296.992 79.602,296.526 79.300,296.051 79.129 C 295.582 78.961,295.051 78.636,294.872 78.408 C 294.693 78.180,294.460 77.994,294.355 77.994 C 294.250 77.994,294.163 77.912,294.163 77.813 C 294.163 77.713,293.978 77.460,293.752 77.251 C 293.327 76.858,292.780 75.634,292.780 75.077 C 292.780 74.904,292.584 74.536,292.344 74.259 C 291.493 73.278,291.396 72.511,291.396 66.721 C 291.396 60.868,291.312 61.450,292.480 59.230 C 292.630 58.945,292.892 58.245,293.062 57.674 C 293.398 56.544,293.713 56.065,294.254 55.858 C 294.446 55.784,294.716 55.501,294.854 55.229 C 295.220 54.505,295.608 54.169,296.445 53.851 C 296.855 53.696,297.353 53.393,297.552 53.179 C 298.242 52.436,299.082 52.112,301.081 51.818 C 302.767 51.571,324.840 51.728,325.285 51.991 M41.039 53.048 C 42.257 53.077,44.203 53.077,45.362 53.047 C 46.522 53.018,45.525 52.993,43.147 52.993 C 40.770 52.993,39.821 53.018,41.039 53.048 M90.329 53.048 C 94.307 53.074,100.766 53.074,104.682 53.048 C 108.599 53.022,105.344 53.001,97.449 53.001 C 89.555 53.001,86.350 53.022,90.329 53.048 M80.499 75.659 C 80.499 86.978,80.519 91.583,80.545 85.892 C 80.570 80.202,80.570 70.941,80.545 65.313 C 80.519 59.685,80.499 64.341,80.499 75.659 M114.037 58.625 C 114.037 60.480,114.062 61.239,114.093 60.311 C 114.125 59.384,114.125 57.866,114.093 56.939 C 114.062 56.012,114.037 56.770,114.037 58.625 M113.771 63.084 C 113.714 63.427,113.739 63.589,113.835 63.493 C 113.923 63.406,113.965 63.150,113.929 62.925 C 113.875 62.579,113.851 62.603,113.771 63.084 M103.768 64.289 C 99.254 64.314,95.503 64.393,95.433 64.463 C 95.362 64.534,99.069 64.553,103.669 64.505 C 108.270 64.457,112.092 64.360,112.163 64.289 C 112.235 64.217,112.222 64.178,112.134 64.201 C 112.047 64.223,108.282 64.263,103.768 64.289 M177.518 64.960 C 177.233 65.003,176.786 65.122,176.524 65.225 L 176.048 65.412 176.048 68.489 L 176.048 71.566 176.567 71.796 C 176.853 71.922,177.086 72.078,177.086 72.143 C 177.086 72.762,181.677 72.711,182.303 72.085 C 183.216 71.172,183.196 65.487,182.279 65.090 C 181.960 64.952,178.249 64.851,177.518 64.960 M221.833 65.211 C 221.667 65.308,221.530 65.586,221.530 65.829 C 221.530 66.302,220.785 67.937,220.438 68.223 C 220.095 68.507,219.801 69.321,219.797 70.004 C 219.794 70.356,219.647 71.287,219.469 72.072 L 219.146 73.500 219.630 73.845 C 220.500 74.464,226.017 74.224,226.273 73.555 C 226.320 73.434,226.165 73.104,225.928 72.823 C 225.436 72.237,224.816 70.570,224.816 69.830 C 224.816 68.797,224.264 66.843,223.848 66.407 C 223.621 66.169,223.244 65.761,223.010 65.499 C 222.554 64.990,222.313 64.931,221.833 65.211 M94.423 69.288 C 94.423 69.383,94.637 69.648,94.898 69.879 L 95.374 70.298 94.942 69.780 C 94.704 69.494,94.490 69.228,94.466 69.189 C 94.442 69.149,94.423 69.194,94.423 69.288 M98.184 70.341 C 99.730 70.370,102.259 70.370,103.805 70.341 C 105.350 70.313,104.086 70.289,100.994 70.289 C 97.903 70.289,96.639 70.313,98.184 70.341 M63.434 74.492 C 64.605 74.522,66.472 74.521,67.584 74.491 C 68.697 74.461,67.739 74.437,65.456 74.437 C 63.173 74.437,62.263 74.462,63.434 74.492 M106.399 80.707 C 106.565 80.751,106.837 80.751,107.004 80.707 C 107.170 80.664,107.034 80.628,106.701 80.628 C 106.368 80.628,106.232 80.664,106.399 80.707 M94.135 84.393 C 94.135 85.106,94.166 85.398,94.203 85.041 C 94.240 84.684,94.240 84.101,94.203 83.744 C 94.166 83.387,94.135 83.679,94.135 84.393 M114.037 92.693 C 114.037 94.548,114.062 95.307,114.093 94.380 C 114.125 93.452,114.125 91.935,114.093 91.007 C 114.062 90.080,114.037 90.839,114.037 92.693 M36.337 97.293 C 36.325 97.492,36.492 97.803,36.706 97.984 C 37.091 98.311,37.092 98.311,36.810 97.968 C 36.653 97.778,36.487 97.466,36.441 97.276 C 36.360 96.944,36.356 96.944,36.337 97.293 M46.835 98.530 C 51.051 98.556,57.900 98.556,62.054 98.530 C 66.208 98.504,62.758 98.483,54.388 98.483 C 46.018 98.483,42.619 98.504,46.835 98.530 M90.056 98.530 C 93.789 98.556,99.898 98.556,103.632 98.530 C 107.365 98.504,104.310 98.483,96.844 98.483 C 89.377 98.483,86.323 98.504,90.056 98.530 " stroke="none" fill="#e4254c" fill-rule="evenodd"></path><path id="path1" d="M36.867 53.826 C 36.681 54.230,36.442 54.779,36.336 55.045 C 36.075 55.700,36.066 94.876,36.327 96.498 C 36.650 98.513,34.780 98.306,53.226 98.367 C 71.436 98.426,71.661 98.418,72.031 97.702 C 72.479 96.836,72.401 75.644,71.947 75.054 L 71.615 74.622 66.288 74.622 C 58.544 74.622,59.154 74.059,58.990 81.348 L 58.885 85.999 58.396 86.363 C 57.937 86.706,57.697 86.727,54.359 86.727 L 50.810 86.727 50.398 86.210 L 49.986 85.693 49.939 70.213 C 49.887 53.138,49.941 53.954,48.840 53.677 C 48.618 53.622,48.346 53.467,48.235 53.334 C 48.070 53.135,47.053 53.091,42.620 53.091 L 37.205 53.091 36.867 53.826 M81.021 53.988 L 80.588 54.885 80.588 76.210 L 80.588 97.536 80.977 97.925 L 81.366 98.314 96.757 98.314 C 114.652 98.314,113.398 98.436,113.765 96.661 C 114.159 94.758,114.025 89.555,113.555 88.492 C 112.833 86.858,113.173 86.914,103.403 86.814 C 94.343 86.720,94.839 86.775,94.293 85.815 C 93.852 85.039,94.161 82.209,94.790 81.267 L 95.070 80.847 101.301 80.761 L 107.531 80.674 108.065 80.069 L 108.598 79.464 108.595 75.486 C 108.591 71.524,108.589 71.507,108.167 70.990 L 107.744 70.471 101.529 70.385 C 95.421 70.300,95.308 70.292,94.910 69.918 C 94.106 69.162,93.942 66.483,94.615 65.105 C 94.969 64.379,95.346 64.347,104.107 64.295 C 115.002 64.231,113.959 64.817,113.963 58.753 C 113.965 55.076,113.935 54.930,113.020 54.139 C 112.739 53.896,112.391 53.560,112.247 53.394 C 112.002 53.110,111.044 53.091,96.719 53.091 L 81.453 53.091 81.021 53.988 " stroke="none" fill="#080808" fill-rule="evenodd"></path><path id="path2" d="M0.000 86.468 L 0.000 172.936 200.000 172.936 L 400.000 172.936 400.000 86.468 L 400.000 0.000 200.000 0.000 L 0.000 0.000 0.000 86.468 M361.325 21.656 C 362.122 21.895,362.461 22.182,362.776 22.881 C 362.947 23.263,362.992 33.367,362.992 71.526 C 362.992 123.440,363.050 120.134,362.127 120.969 C 361.747 121.313,361.410 121.315,282.404 121.401 C 207.153 121.483,203.045 121.503,202.728 121.790 C 202.544 121.956,202.307 122.093,202.200 122.093 C 202.093 122.093,201.944 122.196,201.868 122.322 C 201.717 122.571,201.567 122.642,199.963 123.222 C 199.373 123.436,198.780 123.717,198.646 123.846 C 197.903 124.565,197.459 124.822,196.353 125.171 C 195.545 125.426,194.959 125.737,194.626 126.087 C 194.100 126.639,193.185 127.108,192.634 127.108 C 192.233 127.108,190.921 127.782,190.921 127.988 C 190.921 128.260,189.657 128.924,188.370 129.328 C 187.681 129.544,187.116 129.819,187.116 129.939 C 187.116 130.406,185.908 131.007,184.291 131.343 C 184.021 131.399,183.554 131.707,183.253 132.026 C 182.620 132.699,182.084 132.979,180.591 133.416 C 179.899 133.619,179.479 133.842,179.416 134.039 C 179.277 134.478,178.355 134.973,177.072 135.297 C 176.238 135.508,175.854 135.709,175.526 136.108 C 175.105 136.621,173.852 137.311,173.342 137.311 C 172.944 137.311,171.717 137.995,171.609 138.277 C 171.488 138.592,170.314 139.213,169.840 139.213 C 169.651 139.213,169.449 139.291,169.390 139.386 C 169.332 139.481,169.113 139.559,168.905 139.560 C 168.696 139.560,168.253 139.828,167.920 140.155 C 167.510 140.558,166.871 140.901,165.938 141.219 C 165.030 141.528,164.383 141.871,164.036 142.228 C 163.470 142.810,162.747 143.191,162.205 143.191 C 161.815 143.191,160.927 143.645,160.340 144.144 C 160.118 144.333,159.775 144.624,159.579 144.790 C 159.382 144.957,159.119 145.093,158.994 145.093 C 158.399 145.093,157.050 145.703,156.507 146.218 C 155.830 146.859,154.798 147.341,154.100 147.341 C 153.805 147.341,153.386 147.576,152.942 147.990 C 152.138 148.738,151.390 149.137,150.256 149.422 C 149.724 149.556,149.191 149.871,148.675 150.359 C 148.050 150.950,147.680 151.142,146.797 151.335 C 145.953 151.521,145.558 151.717,145.093 152.183 C 144.476 152.802,143.680 153.203,142.372 153.555 C 141.970 153.663,141.425 153.974,141.162 154.245 C 140.055 155.386,139.004 155.403,137.752 154.303 L 137.311 153.915 137.311 88.563 L 137.311 23.212 137.897 22.553 C 138.229 22.180,138.773 21.804,139.151 21.687 C 140.138 21.381,360.305 21.350,361.325 21.656 M49.079 52.058 C 49.578 52.202,49.977 52.475,50.290 52.885 L 50.757 53.496 50.806 69.496 C 50.840 80.700,50.911 85.564,51.043 85.722 C 51.306 86.039,57.217 86.048,57.635 85.733 C 57.888 85.541,57.927 84.910,57.970 80.228 L 58.020 74.938 58.539 74.492 C 60.084 73.163,69.740 72.783,72.222 73.953 C 73.361 74.490,73.340 74.244,73.287 86.654 L 73.238 97.822 72.763 98.445 C 72.069 99.354,72.126 99.351,54.129 99.351 C 34.799 99.351,35.896 99.460,35.385 97.496 C 35.247 96.969,35.010 96.296,34.858 96.001 C 34.431 95.176,34.525 55.545,34.955 55.055 C 35.110 54.878,35.334 54.423,35.453 54.042 C 35.847 52.781,35.951 52.593,36.430 52.279 C 37.292 51.712,47.283 51.538,49.079 52.058 M112.840 52.053 C 114.986 52.792,115.084 53.090,115.083 58.885 C 115.082 64.783,115.176 64.520,112.799 65.280 C 112.301 65.439,111.849 65.641,111.795 65.729 C 111.737 65.823,108.357 65.888,103.582 65.888 L 95.467 65.888 95.367 66.364 C 95.312 66.626,95.239 66.978,95.206 67.146 C 95.172 67.315,95.218 67.718,95.307 68.042 L 95.470 68.631 101.219 68.686 L 106.968 68.742 107.959 69.400 C 109.477 70.408,109.468 70.372,109.468 75.457 C 109.468 79.819,109.315 81.107,108.795 81.107 C 108.712 81.107,108.421 81.329,108.148 81.600 C 107.384 82.361,106.278 82.490,100.543 82.490 C 94.801 82.490,95.267 82.346,95.151 84.160 C 95.025 86.114,94.231 85.949,103.774 85.949 C 113.675 85.949,114.282 86.028,114.855 87.384 C 115.183 88.161,115.192 97.210,114.865 97.968 C 114.260 99.374,112.758 99.483,95.288 99.396 C 79.054 99.316,79.943 99.433,79.646 97.327 C 79.583 96.880,79.417 96.283,79.277 96.003 C 78.935 95.317,78.982 55.238,79.325 55.026 C 79.438 54.956,79.616 54.521,79.720 54.059 C 80.079 52.455,80.588 52.023,82.309 51.860 C 84.763 51.627,112.106 51.800,112.840 52.053 M162.934 52.989 C 162.345 53.115,161.939 53.309,161.810 53.528 C 161.507 54.042,161.442 95.615,161.744 95.979 C 161.863 96.122,162.359 96.453,162.847 96.714 L 163.735 97.190 168.497 97.190 C 175.113 97.190,174.531 97.802,174.660 90.705 C 174.787 83.754,174.067 84.384,182.084 84.198 C 189.888 84.016,190.199 83.981,191.099 83.177 C 191.429 82.881,191.933 82.539,192.218 82.416 C 192.503 82.292,193.062 82.055,193.459 81.888 C 193.975 81.671,194.240 81.430,194.385 81.043 C 194.752 80.063,194.931 79.766,195.524 79.156 C 196.678 77.967,196.690 77.876,196.762 69.516 C 196.838 60.557,196.721 59.346,195.680 58.335 C 195.344 58.008,194.921 57.454,194.742 57.102 C 194.061 55.773,192.302 54.475,191.179 54.475 C 190.965 54.475,190.693 54.358,190.575 54.215 C 190.457 54.073,190.290 53.956,190.204 53.956 C 190.119 53.956,189.759 53.770,189.404 53.543 C 188.889 53.214,188.356 53.092,186.760 52.938 C 184.043 52.676,164.206 52.719,162.934 52.989 M213.489 52.923 C 213.204 53.006,212.756 53.118,212.495 53.172 C 212.233 53.226,212.019 53.383,212.019 53.521 C 212.019 53.659,211.912 54.027,211.781 54.339 C 211.650 54.651,211.404 55.354,211.234 55.899 C 211.065 56.445,210.777 57.027,210.594 57.193 C 210.109 57.631,209.766 58.528,209.486 60.085 C 209.249 61.406,208.781 62.456,208.308 62.731 C 208.106 62.849,207.350 65.440,207.350 66.017 C 207.350 66.390,206.704 67.710,206.397 67.965 C 206.015 68.282,205.665 69.174,205.535 70.162 C 205.285 72.056,205.063 72.855,204.583 73.584 C 203.610 75.064,203.522 76.259,203.582 87.178 C 203.622 94.337,203.678 96.135,203.868 96.420 C 204.601 97.521,215.132 97.559,215.132 96.461 C 215.132 96.386,215.229 96.323,215.348 96.320 C 216.196 96.298,216.251 96.039,216.344 91.595 C 216.468 85.712,216.054 86.064,222.741 86.151 C 229.231 86.235,228.980 86.030,229.084 91.342 C 229.164 95.478,229.197 95.828,229.529 96.191 C 229.648 96.320,229.831 96.579,229.937 96.765 C 230.251 97.320,240.124 97.377,240.537 96.826 C 240.688 96.623,240.968 96.291,241.159 96.088 C 241.660 95.554,241.697 78.253,241.202 76.030 C 241.035 75.283,240.899 74.365,240.899 73.990 C 240.899 72.947,240.377 71.041,239.958 70.558 C 239.394 69.907,239.050 69.047,238.817 67.704 C 238.566 66.255,238.318 65.605,237.790 65.014 C 237.359 64.531,236.755 62.800,236.751 62.035 C 236.748 61.402,236.311 60.376,235.814 59.836 C 235.342 59.321,234.847 58.109,234.847 57.467 C 234.847 57.214,234.771 56.768,234.680 56.476 C 234.588 56.184,234.473 55.744,234.424 55.499 C 234.376 55.253,234.151 54.969,233.926 54.866 C 233.700 54.763,233.353 54.332,233.153 53.907 C 232.954 53.483,232.650 53.068,232.478 52.985 C 232.066 52.786,214.159 52.728,213.489 52.923 M249.133 52.918 C 247.830 53.151,247.909 52.638,247.850 61.271 C 247.789 70.299,247.837 70.786,248.884 71.811 C 249.248 72.168,249.546 72.623,249.546 72.822 C 249.546 73.239,250.048 74.210,250.370 74.415 C 250.837 74.714,251.402 75.452,251.890 76.399 C 252.170 76.943,252.516 77.478,252.659 77.587 C 253.408 78.160,253.661 78.478,253.773 78.986 C 253.841 79.294,254.104 79.701,254.358 79.890 C 255.144 80.475,255.599 81.000,255.599 81.319 C 255.599 81.488,255.930 81.956,256.334 82.359 C 257.196 83.219,257.643 83.858,258.090 84.864 C 258.269 85.266,258.556 85.640,258.728 85.695 C 259.638 85.984,259.780 86.690,259.867 91.360 C 259.964 96.567,259.953 96.527,261.313 96.905 C 262.608 97.265,272.546 97.338,272.546 96.987 C 272.546 96.876,272.683 96.634,272.849 96.450 C 273.113 96.159,273.166 95.570,273.262 91.804 L 273.373 87.491 274.019 86.864 C 274.374 86.519,274.840 85.859,275.054 85.397 C 275.410 84.628,276.054 83.874,276.354 83.874 C 276.421 83.874,276.726 83.368,277.030 82.750 C 277.334 82.131,277.695 81.626,277.832 81.626 C 277.969 81.626,278.080 81.509,278.080 81.366 C 278.080 81.224,278.185 81.107,278.312 81.107 C 278.440 81.107,278.647 80.796,278.772 80.415 C 278.898 80.035,279.061 79.723,279.134 79.723 C 279.208 79.723,279.319 79.560,279.383 79.360 C 279.496 79.002,280.062 78.340,280.254 78.340 C 280.445 78.340,280.765 77.900,281.157 77.096 C 281.381 76.639,281.797 76.133,282.111 75.940 C 282.500 75.699,282.734 75.371,282.888 74.849 C 283.012 74.428,283.506 73.634,284.020 73.026 L 284.931 71.950 285.151 70.173 C 285.308 68.906,285.355 66.247,285.314 60.907 L 285.257 53.417 284.825 53.085 C 283.820 52.313,273.729 52.660,273.392 53.478 C 273.382 53.503,273.324 56.327,273.263 59.754 C 273.157 65.684,273.135 66.006,272.797 66.435 C 272.602 66.682,272.340 67.225,272.216 67.641 C 271.838 68.901,271.126 70.236,270.738 70.413 C 270.537 70.505,270.160 71.043,269.901 71.610 C 269.425 72.653,268.676 73.323,267.984 73.324 C 267.805 73.324,267.402 73.484,267.087 73.678 L 266.516 74.031 265.770 73.458 C 264.191 72.247,262.867 70.596,262.857 69.826 C 262.851 69.434,262.497 68.828,262.274 68.828 C 262.209 68.828,262.021 68.692,261.855 68.526 C 261.026 67.691,261.056 67.958,260.962 60.509 C 260.879 54.038,260.846 53.422,260.564 53.140 C 260.216 52.792,250.857 52.611,249.133 52.918 M303.329 52.859 C 301.206 53.094,300.553 53.258,300.156 53.654 C 299.929 53.882,299.479 54.165,299.158 54.284 C 298.836 54.403,298.340 54.606,298.054 54.736 C 297.769 54.865,297.289 55.020,296.988 55.079 C 296.557 55.165,296.384 55.329,296.175 55.851 C 295.932 56.459,295.117 57.242,294.726 57.242 C 294.637 57.242,294.465 57.572,294.344 57.977 C 294.223 58.381,294.054 58.906,293.968 59.144 C 293.543 60.333,293.345 67.967,293.639 71.855 C 293.857 74.735,294.122 75.694,294.845 76.214 C 295.183 76.458,295.663 76.943,295.910 77.292 C 296.279 77.812,296.537 77.969,297.339 78.161 C 297.878 78.290,298.405 78.500,298.510 78.627 C 298.616 78.755,298.809 78.859,298.940 78.859 C 299.071 78.859,299.179 78.934,299.179 79.027 C 299.179 79.562,301.328 79.988,304.887 80.158 C 308.216 80.317,310.679 80.775,311.457 81.380 C 311.600 81.491,311.989 81.633,312.322 81.696 C 313.850 81.983,314.547 84.158,313.615 85.735 C 313.010 86.759,313.358 86.723,303.675 86.774 C 293.048 86.831,293.749 86.698,293.581 88.682 C 293.341 91.519,293.448 95.554,293.774 96.001 C 293.941 96.229,294.163 96.570,294.269 96.759 C 294.456 97.096,294.689 97.104,305.337 97.156 C 316.107 97.207,316.796 97.181,318.807 96.630 C 319.480 96.446,320.448 96.266,321.974 96.042 C 322.521 95.961,322.798 95.811,323.008 95.480 C 323.397 94.867,324.090 94.261,324.535 94.146 C 324.737 94.093,325.000 93.843,325.121 93.588 C 325.242 93.334,325.466 92.864,325.619 92.544 C 325.772 92.224,326.060 91.886,326.260 91.793 C 327.078 91.413,327.194 90.358,327.193 83.340 C 327.192 76.204,327.146 75.814,326.203 74.896 C 325.869 74.571,325.488 74.047,325.357 73.732 C 325.195 73.344,324.879 73.040,324.383 72.796 C 323.979 72.598,323.412 72.164,323.122 71.832 C 322.556 71.185,322.399 71.149,316.818 70.365 C 316.010 70.252,314.842 69.973,314.224 69.746 C 313.483 69.474,312.274 69.248,310.679 69.083 C 307.241 68.729,306.976 68.544,306.717 66.321 C 306.438 63.932,306.741 63.853,316.454 63.784 C 323.259 63.735,324.450 63.689,324.653 63.467 C 325.664 62.368,325.489 53.289,324.452 52.995 C 323.986 52.862,304.432 52.737,303.329 52.859 M182.735 63.943 C 184.562 64.800,184.955 65.699,184.955 69.029 L 184.955 71.736 184.176 72.564 C 183.748 73.019,183.094 73.696,182.722 74.069 L 182.046 74.747 179.177 74.670 C 174.608 74.548,174.665 74.623,174.665 68.761 L 174.665 64.703 175.310 64.172 L 175.954 63.640 179.022 63.640 C 181.582 63.640,182.196 63.690,182.735 63.943 M224.625 64.644 C 225.231 65.134,225.657 66.243,225.673 67.371 C 225.683 68.063,226.193 69.558,226.495 69.782 C 227.521 70.543,227.860 73.788,227.059 75.184 L 226.539 76.092 222.818 76.092 C 218.148 76.092,217.754 75.961,217.210 74.233 C 216.933 73.352,217.213 72.224,217.832 71.728 C 218.240 71.401,218.764 69.469,218.764 68.292 C 218.764 67.197,219.494 65.715,220.609 64.547 C 221.311 63.811,223.667 63.869,224.625 64.644 " stroke="none" fill="#fbfbfb" fill-rule="evenodd"></path><path id="path3" d="M139.419 22.318 C 139.199 22.406,138.907 22.590,138.770 22.727 C 138.425 23.072,138.391 152.564,138.735 153.342 C 139.207 154.407,139.676 154.482,140.651 153.647 C 141.044 153.310,141.562 152.993,141.803 152.941 C 142.680 152.752,143.296 152.460,144.142 151.832 C 144.617 151.478,145.454 151.025,146.000 150.824 C 146.546 150.624,147.316 150.244,147.710 149.981 C 148.779 149.268,149.433 148.930,150.126 148.731 C 150.469 148.632,151.094 148.299,151.514 147.990 C 152.445 147.305,152.981 146.995,153.236 146.995 C 153.585 146.995,154.677 146.418,155.591 145.751 C 156.087 145.389,156.570 145.093,156.666 145.093 C 156.825 145.093,157.457 144.842,158.572 144.334 C 158.804 144.228,159.213 143.943,159.481 143.701 C 159.748 143.458,160.259 143.161,160.615 143.042 C 161.804 142.642,162.631 142.243,163.020 141.883 C 163.231 141.687,163.662 141.404,163.976 141.254 C 165.028 140.752,165.855 140.424,166.067 140.424 C 166.183 140.423,166.564 140.171,166.914 139.862 C 167.483 139.360,167.867 139.169,169.710 138.477 C 169.982 138.375,170.499 138.045,170.860 137.743 C 171.504 137.205,171.687 137.115,173.294 136.535 C 173.730 136.378,174.386 135.982,174.753 135.656 C 175.119 135.330,175.519 135.063,175.642 135.063 C 176.122 135.063,178.031 134.132,178.642 133.600 C 178.880 133.393,179.406 133.093,179.810 132.933 C 181.598 132.224,181.968 132.039,182.408 131.631 C 182.817 131.252,183.862 130.760,184.951 130.435 C 185.140 130.378,185.373 130.269,185.470 130.192 C 185.567 130.116,185.880 129.868,186.165 129.642 C 186.697 129.222,188.218 128.492,188.565 128.490 C 188.672 128.490,189.158 128.187,189.645 127.818 C 190.133 127.448,190.833 127.046,191.202 126.925 C 192.176 126.604,193.324 126.066,193.442 125.875 C 193.631 125.570,194.804 124.940,195.786 124.618 C 196.322 124.442,197.082 124.013,197.475 123.665 C 197.880 123.305,198.543 122.935,199.008 122.808 C 200.231 122.476,200.505 122.343,201.165 121.764 C 202.455 120.631,195.971 120.714,282.567 120.712 L 361.157 120.709 361.642 120.244 L 362.127 119.780 362.124 71.433 L 362.121 23.087 361.666 22.655 L 361.210 22.222 250.514 22.190 C 182.709 22.170,139.663 22.219,139.419 22.318 M361.330 23.101 C 361.550 23.672,361.448 119.763,361.228 119.983 C 361.067 120.144,343.186 120.190,281.807 120.191 C 195.779 120.192,201.634 120.117,200.596 121.239 C 200.152 121.719,199.756 121.954,199.163 122.086 C 197.935 122.362,196.928 122.895,196.541 123.475 C 196.351 123.760,196.052 123.994,195.876 123.994 C 194.983 123.996,193.650 124.576,192.868 125.304 C 192.338 125.798,191.830 126.105,191.440 126.168 C 190.417 126.334,189.475 126.796,188.932 127.399 C 188.528 127.848,188.134 128.048,187.151 128.302 C 186.168 128.557,185.756 128.766,185.290 129.246 C 184.922 129.624,184.341 129.973,183.785 130.150 C 182.423 130.583,181.740 130.941,181.108 131.550 C 180.794 131.854,180.402 132.137,180.238 132.180 C 180.074 132.224,179.582 132.352,179.145 132.465 C 178.674 132.587,178.041 132.946,177.589 133.348 C 177.170 133.720,176.695 134.025,176.534 134.025 C 176.373 134.025,176.199 134.094,176.147 134.178 C 176.095 134.263,175.760 134.386,175.402 134.451 C 175.042 134.517,174.404 134.857,173.973 135.211 C 173.187 135.859,172.236 136.329,171.302 136.532 C 171.022 136.593,170.551 136.899,170.255 137.213 C 169.878 137.612,169.260 137.945,168.191 138.325 C 166.832 138.808,166.018 139.342,166.018 139.751 C 166.018 139.827,165.735 139.942,165.389 140.007 C 164.184 140.233,162.989 140.765,162.559 141.266 C 162.128 141.769,161.045 142.326,160.500 142.326 C 159.985 142.326,158.881 142.996,158.367 143.619 C 158.043 144.013,157.716 144.228,157.443 144.228 C 156.584 144.228,155.559 144.678,154.841 145.370 C 154.350 145.845,153.830 146.151,153.274 146.295 C 151.847 146.663,151.445 146.870,150.668 147.636 C 150.160 148.137,149.763 148.380,149.449 148.381 C 148.660 148.386,147.704 148.812,147.032 149.457 C 146.616 149.857,146.025 150.184,145.352 150.387 C 144.416 150.669,143.197 151.369,143.046 151.710 C 142.954 151.917,141.617 152.473,140.905 152.601 C 140.551 152.664,140.160 152.818,140.035 152.942 C 139.773 153.205,139.386 152.917,139.386 152.460 C 139.386 152.319,139.308 152.156,139.213 152.097 C 138.934 151.925,138.977 23.403,139.256 23.086 C 139.605 22.691,361.179 22.706,361.330 23.101 M161.611 51.974 C 160.272 52.686,160.398 50.319,160.398 74.791 C 160.398 96.195,160.404 96.599,160.744 97.406 C 161.383 98.924,162.609 99.161,169.286 99.063 C 174.738 98.983,174.831 98.960,175.426 97.503 C 175.593 97.093,175.880 96.446,176.063 96.066 C 176.361 95.446,176.395 94.967,176.395 91.448 L 176.394 87.522 177.000 86.934 L 177.606 86.345 180.934 86.246 C 184.069 86.152,186.097 85.910,186.527 85.579 C 186.631 85.499,187.409 85.355,188.256 85.259 C 192.095 84.826,192.670 84.656,193.243 83.782 C 193.407 83.531,193.816 83.211,194.151 83.071 C 194.893 82.761,195.230 82.430,195.661 81.582 C 195.842 81.226,196.052 80.934,196.127 80.934 C 196.789 80.934,197.651 79.096,197.669 77.648 C 197.673 77.315,197.875 76.654,198.117 76.178 C 199.369 73.721,199.468 64.107,198.268 61.529 C 198.033 61.026,197.799 60.342,197.748 60.009 C 197.405 57.784,196.795 56.377,196.175 56.377 C 196.044 56.377,195.936 56.260,195.936 56.118 C 195.936 55.975,195.863 55.858,195.775 55.858 C 195.686 55.858,195.561 55.694,195.498 55.493 C 195.257 54.735,193.836 53.620,193.093 53.607 C 192.992 53.605,192.598 53.330,192.218 52.996 C 191.837 52.662,191.332 52.346,191.094 52.293 C 190.856 52.241,190.428 52.109,190.143 52.001 C 189.222 51.652,162.265 51.626,161.611 51.974 M211.743 52.037 C 211.118 52.321,210.978 52.499,210.561 53.541 C 210.301 54.192,209.910 54.901,209.693 55.118 C 209.208 55.604,208.869 56.543,208.499 58.432 C 208.290 59.501,208.107 59.982,207.803 60.264 C 207.179 60.842,206.982 61.317,206.645 63.060 C 206.311 64.780,206.174 65.128,205.567 65.783 C 205.097 66.289,204.583 67.827,204.583 68.722 C 204.583 69.401,204.277 70.132,203.632 70.994 C 202.558 72.431,202.330 75.254,202.341 86.987 C 202.354 99.950,201.794 98.943,209.044 99.059 C 217.393 99.193,217.384 99.200,217.577 92.866 C 217.645 90.631,217.766 88.491,217.846 88.111 L 217.991 87.419 222.052 87.377 C 224.286 87.353,226.219 87.402,226.349 87.485 C 226.771 87.756,226.942 89.088,227.014 92.672 C 227.089 96.433,227.144 96.680,228.058 97.419 C 228.272 97.592,228.448 97.839,228.448 97.968 C 228.448 98.097,228.871 98.402,229.388 98.647 L 230.329 99.092 235.265 99.092 C 240.903 99.092,241.188 99.039,242.380 97.762 C 243.722 96.323,243.702 96.512,243.620 86.090 C 243.543 76.299,243.484 75.573,242.681 74.428 C 242.210 73.759,241.972 72.973,241.769 71.422 C 241.524 69.552,241.322 68.978,240.641 68.212 C 240.308 67.838,240.035 67.376,240.036 67.185 C 240.041 65.978,239.200 63.508,238.533 62.768 C 238.297 62.507,238.028 61.840,237.869 61.125 C 237.722 60.464,237.522 59.572,237.425 59.144 C 237.326 58.711,237.029 58.136,236.755 57.847 C 236.483 57.562,236.171 56.978,236.060 56.550 C 235.304 53.629,234.724 52.685,233.264 52.003 C 232.254 51.531,212.789 51.562,211.743 52.037 M247.730 52.023 C 246.630 52.703,246.691 52.097,246.706 62.154 C 246.721 72.205,246.754 72.532,247.813 73.188 C 248.011 73.311,248.480 74.035,248.855 74.798 C 249.309 75.722,249.705 76.284,250.041 76.482 C 250.335 76.656,250.666 77.083,250.836 77.509 C 251.118 78.212,251.503 78.660,252.293 79.203 C 252.499 79.344,252.743 79.740,252.835 80.082 C 252.931 80.439,253.296 80.974,253.692 81.341 C 254.071 81.692,254.590 82.405,254.845 82.926 C 255.100 83.447,255.374 83.874,255.454 83.874 C 255.534 83.874,255.599 83.990,255.599 84.133 C 255.599 84.276,255.681 84.393,255.781 84.393 C 256.048 84.393,256.982 85.462,256.986 85.771 C 256.991 86.120,257.455 86.667,258.150 87.143 L 258.712 87.529 258.712 91.739 C 258.712 99.259,258.422 99.006,267.013 99.006 L 272.633 99.006 273.253 98.586 C 273.594 98.355,273.966 97.956,274.080 97.699 C 274.193 97.442,274.481 97.008,274.718 96.735 C 275.293 96.073,275.293 96.073,275.362 92.002 C 275.433 87.848,275.904 85.835,276.938 85.266 C 277.416 85.003,278.080 84.025,278.080 83.585 C 278.080 83.471,278.387 83.158,278.761 82.891 C 279.171 82.598,279.599 82.071,279.834 81.570 C 280.050 81.111,280.541 80.410,280.926 80.013 C 281.687 79.227,282.231 78.358,282.231 77.926 C 282.231 77.776,282.531 77.454,282.898 77.212 C 283.519 76.801,283.952 76.185,283.966 75.694 C 283.973 75.453,284.562 74.708,284.746 74.708 C 284.979 74.708,285.698 73.760,285.795 73.325 C 285.848 73.087,286.002 72.548,286.136 72.127 C 286.271 71.705,286.381 71.180,286.381 70.959 C 286.381 70.738,286.442 70.558,286.517 70.558 C 287.265 70.558,287.582 67.487,287.588 60.182 C 287.595 51.614,287.704 51.726,279.318 51.715 L 273.552 51.708 272.630 52.259 C 271.221 53.102,271.271 52.822,271.168 60.441 C 271.068 67.828,271.115 67.509,269.950 68.742 C 269.560 69.156,269.139 69.874,268.904 70.530 C 268.486 71.697,268.330 71.822,267.092 71.982 C 266.267 72.088,265.824 71.801,265.465 70.928 C 265.314 70.561,265.046 70.284,264.738 70.177 C 264.365 70.047,264.205 69.837,264.058 69.288 C 263.829 68.434,263.516 67.805,262.793 66.753 L 262.259 65.975 262.163 59.642 C 262.060 52.866,262.074 52.974,261.157 52.054 C 260.716 51.611,248.442 51.583,247.730 52.023 M301.081 51.818 C 299.082 52.112,298.242 52.436,297.552 53.179 C 297.353 53.393,296.855 53.696,296.445 53.851 C 295.608 54.169,295.220 54.505,294.854 55.229 C 294.716 55.501,294.446 55.784,294.254 55.858 C 293.713 56.065,293.398 56.544,293.062 57.674 C 292.892 58.245,292.630 58.945,292.480 59.230 C 291.312 61.450,291.396 60.868,291.396 66.721 C 291.396 72.511,291.493 73.278,292.344 74.259 C 292.584 74.536,292.780 74.904,292.780 75.077 C 292.780 75.634,293.327 76.858,293.752 77.251 C 293.978 77.460,294.163 77.713,294.163 77.813 C 294.163 77.912,294.250 77.994,294.355 77.994 C 294.460 77.994,294.693 78.180,294.872 78.408 C 295.051 78.636,295.582 78.961,296.051 79.129 C 296.526 79.300,296.992 79.602,297.103 79.810 C 297.448 80.454,298.167 80.726,300.047 80.926 C 303.102 81.251,304.185 81.441,304.851 81.770 C 305.757 82.218,310.215 83.009,311.827 83.009 C 312.570 83.009,312.949 83.411,312.708 83.941 C 312.595 84.189,312.381 84.393,312.233 84.393 C 312.085 84.393,311.756 84.529,311.502 84.695 C 311.085 84.969,310.258 85.007,302.818 85.095 L 294.596 85.192 293.818 85.635 C 291.224 87.109,291.396 86.670,291.396 91.816 C 291.396 96.300,291.466 96.661,292.497 97.516 C 292.653 97.645,292.780 97.853,292.780 97.977 C 292.780 98.101,293.216 98.409,293.749 98.661 L 294.719 99.119 306.330 99.042 C 319.352 98.956,319.814 98.915,321.314 97.711 C 321.552 97.520,322.214 97.243,322.784 97.095 C 323.589 96.887,323.980 96.663,324.525 96.100 C 324.911 95.701,325.440 95.232,325.699 95.058 C 325.958 94.885,326.291 94.440,326.439 94.070 C 326.587 93.701,326.858 93.351,327.042 93.292 C 328.133 92.946,328.571 90.115,328.575 83.387 C 328.579 76.768,328.268 74.558,327.184 73.498 C 326.940 73.260,326.608 72.852,326.446 72.592 C 326.284 72.332,325.848 71.964,325.477 71.774 C 325.106 71.585,324.638 71.200,324.438 70.919 C 324.062 70.391,323.184 70.048,321.287 69.688 C 320.792 69.594,320.265 69.409,320.116 69.276 C 319.270 68.526,316.681 68.118,311.149 67.861 C 309.695 67.794,308.472 67.685,308.431 67.619 C 308.228 67.291,308.048 65.438,308.201 65.251 C 308.325 65.099,310.496 65.030,316.528 64.988 C 325.630 64.924,325.454 64.946,325.988 63.771 C 326.459 62.733,326.508 53.533,326.047 52.752 C 325.402 51.661,325.968 51.705,313.160 51.731 C 306.754 51.744,301.319 51.783,301.081 51.818 M189.192 52.605 C 190.317 52.905,190.743 53.072,191.094 53.348 C 191.236 53.461,191.626 53.660,191.958 53.790 C 193.217 54.281,194.554 55.186,194.836 55.737 C 194.992 56.041,195.172 56.329,195.237 56.377 C 197.202 57.828,197.727 60.710,197.614 69.434 C 197.520 76.645,197.271 78.602,196.309 79.663 C 195.891 80.124,195.016 81.310,194.797 81.713 C 194.634 82.012,193.861 82.543,192.996 82.952 C 192.853 83.019,192.659 83.170,192.564 83.287 C 191.676 84.382,188.742 84.876,182.059 85.056 C 174.985 85.247,175.520 84.718,175.369 91.664 C 175.284 95.637,175.229 96.317,174.968 96.716 C 174.801 96.970,174.665 97.269,174.665 97.380 C 174.665 98.160,174.189 98.227,168.715 98.228 C 162.667 98.229,162.233 98.153,161.457 96.956 L 161.003 96.256 161.009 74.803 C 161.013 58.210,161.062 53.290,161.225 53.081 C 161.887 52.233,161.918 52.231,175.530 52.293 C 186.018 52.341,188.407 52.395,189.192 52.605 M232.855 52.570 C 234.056 53.313,235.332 55.265,235.356 56.399 C 235.366 56.864,236.107 58.696,236.457 59.121 C 236.710 59.428,237.086 60.434,237.273 61.306 C 237.605 62.850,237.679 63.063,238.113 63.727 C 238.672 64.583,238.944 65.155,239.060 65.716 C 239.334 67.042,239.963 68.947,240.203 69.174 C 240.660 69.607,241.254 71.511,241.607 73.671 C 241.724 74.384,241.890 75.109,241.977 75.283 C 242.575 76.473,242.629 77.416,242.629 86.676 L 242.629 95.860 242.160 96.482 C 241.903 96.824,241.630 97.129,241.555 97.161 C 241.480 97.193,241.418 97.312,241.418 97.426 C 241.418 98.124,240.617 98.227,235.186 98.227 L 229.958 98.227 229.592 97.827 C 229.391 97.607,229.070 97.206,228.880 96.936 C 228.690 96.666,228.398 96.302,228.232 96.126 C 227.966 95.846,227.927 95.396,227.912 92.477 C 227.883 86.524,228.002 86.645,222.136 86.649 C 216.742 86.653,217.034 86.340,217.034 92.131 C 217.034 98.212,216.965 98.267,209.341 98.192 L 204.204 98.141 203.796 97.630 C 202.879 96.479,202.853 96.179,202.857 86.868 C 202.861 76.268,203.038 74.210,204.124 72.114 C 204.458 71.470,204.910 70.040,205.272 68.482 C 205.394 67.959,205.708 67.208,205.972 66.813 C 206.467 66.070,206.603 65.711,207.107 63.813 C 207.390 62.747,208.046 61.265,208.486 60.700 C 208.597 60.558,208.727 60.246,208.775 60.009 C 209.020 58.782,209.653 56.776,209.870 56.536 C 210.006 56.386,210.117 56.172,210.117 56.061 C 210.117 55.949,210.188 55.858,210.276 55.858 C 210.363 55.858,210.568 55.450,210.732 54.950 C 211.359 53.033,211.715 52.619,212.970 52.343 C 214.351 52.039,232.328 52.245,232.855 52.570 M260.927 52.766 L 261.479 53.305 261.479 59.269 C 261.479 65.736,261.607 66.901,262.419 67.791 C 262.636 68.029,262.941 68.476,263.097 68.785 C 263.817 70.210,263.994 70.501,264.408 70.930 C 264.652 71.183,265.195 71.750,265.615 72.192 C 266.136 72.739,266.465 72.958,266.652 72.880 C 266.803 72.818,267.307 72.663,267.773 72.536 C 268.778 72.262,268.735 72.302,269.434 70.999 C 269.737 70.434,270.235 69.655,270.540 69.270 C 271.789 67.694,271.886 67.100,272.010 60.268 C 272.085 56.187,272.176 54.454,272.330 54.183 C 272.449 53.976,272.546 53.645,272.546 53.448 C 272.546 53.246,272.659 53.091,272.806 53.091 C 272.949 53.091,273.066 53.033,273.066 52.962 C 273.072 52.341,274.066 52.227,279.439 52.227 L 284.746 52.227 285.375 52.745 C 285.923 53.196,286.030 53.414,286.209 54.431 C 286.489 56.028,286.360 68.961,286.054 69.952 C 285.937 70.333,285.719 71.072,285.570 71.595 C 285.172 72.995,284.958 73.414,284.252 74.177 C 283.901 74.556,283.614 74.920,283.614 74.985 C 283.614 75.228,282.657 76.610,282.489 76.610 C 282.304 76.610,282.017 77.005,281.485 77.994 C 281.306 78.327,280.895 78.875,280.571 79.212 C 280.247 79.549,279.983 79.918,279.983 80.033 C 279.983 80.148,279.923 80.242,279.849 80.242 C 279.776 80.242,279.562 80.534,279.374 80.891 C 279.185 81.247,278.718 81.889,278.334 82.317 C 277.951 82.745,277.526 83.329,277.390 83.614 C 277.253 83.900,276.889 84.367,276.579 84.652 C 276.053 85.137,275.344 86.262,274.672 87.678 C 274.443 88.163,274.371 89.005,274.310 91.912 L 274.235 95.540 273.638 96.711 C 272.829 98.300,273.142 98.227,267.055 98.227 C 258.975 98.227,259.346 98.538,259.265 91.711 L 259.214 87.357 258.516 86.638 C 258.133 86.243,257.548 85.457,257.216 84.891 C 256.884 84.325,256.463 83.768,256.279 83.653 C 256.095 83.539,255.945 83.347,255.945 83.227 C 255.945 83.107,255.876 83.009,255.792 83.009 C 255.708 83.009,255.592 82.873,255.535 82.706 C 255.330 82.110,254.689 81.195,254.025 80.551 C 253.654 80.191,253.351 79.784,253.351 79.646 C 253.351 79.508,252.956 78.982,252.473 78.478 C 251.990 77.974,251.523 77.406,251.436 77.216 C 251.170 76.640,250.874 76.232,250.195 75.505 C 249.838 75.124,249.546 74.710,249.546 74.587 C 249.546 74.463,249.468 74.362,249.373 74.362 C 249.278 74.362,249.200 74.213,249.200 74.030 C 249.200 73.847,248.933 73.347,248.606 72.919 C 247.299 71.207,247.390 71.976,247.335 62.121 C 247.296 55.074,247.332 53.207,247.508 53.035 C 248.349 52.213,248.236 52.227,254.480 52.227 L 260.375 52.227 260.927 52.766 M325.213 52.824 L 325.724 53.335 325.724 58.099 C 325.724 65.011,326.713 64.352,316.126 64.490 C 306.935 64.609,307.479 64.493,307.479 66.331 C 307.479 67.676,308.047 68.310,309.251 68.309 C 310.822 68.308,316.448 69.058,317.683 69.434 C 319.097 69.864,322.050 70.558,322.465 70.558 C 323.186 70.558,326.567 73.670,327.350 75.054 C 328.272 76.684,328.270 89.959,327.348 91.694 C 327.233 91.911,326.840 92.443,326.474 92.878 C 326.109 93.312,325.811 93.746,325.811 93.843 C 325.811 94.037,324.853 94.942,324.649 94.942 C 324.579 94.942,324.247 95.237,323.912 95.598 C 323.420 96.129,323.003 96.349,321.747 96.742 C 320.891 97.010,319.879 97.371,319.498 97.545 C 318.096 98.186,317.437 98.219,305.786 98.223 L 294.321 98.227 293.929 97.838 C 293.713 97.624,293.243 97.011,292.884 96.475 L 292.231 95.500 292.289 91.805 C 292.385 85.797,291.793 86.122,302.619 86.122 C 312.182 86.122,312.567 86.072,313.110 84.774 C 313.690 83.385,313.273 82.653,311.716 82.331 C 309.803 81.935,308.264 81.581,307.479 81.358 C 307.051 81.236,305.923 81.049,304.972 80.943 C 299.677 80.351,298.862 80.169,297.809 79.348 C 297.578 79.168,297.033 78.865,296.598 78.673 C 295.513 78.196,293.774 76.345,293.493 75.369 C 293.374 74.958,293.196 74.388,293.097 74.103 C 292.998 73.818,292.851 73.234,292.771 72.806 C 292.691 72.378,292.543 71.756,292.443 71.424 C 292.036 70.072,292.216 63.167,292.707 61.285 C 292.952 60.345,293.278 59.070,293.432 58.452 C 293.664 57.517,293.858 57.177,294.586 56.427 C 295.067 55.931,295.616 55.341,295.806 55.115 C 295.997 54.890,296.736 54.420,297.449 54.070 C 298.163 53.720,298.987 53.287,299.282 53.108 C 299.576 52.929,300.238 52.697,300.752 52.592 C 301.266 52.488,301.842 52.371,302.032 52.333 C 302.222 52.294,307.401 52.274,313.540 52.288 L 324.702 52.313 325.213 52.824 M37.527 52.550 C 36.743 52.748,36.482 53.014,36.055 54.053 L 35.633 55.080 35.639 75.659 C 35.646 99.682,35.543 98.232,37.289 98.742 C 38.368 99.058,71.194 98.914,71.761 98.591 C 72.860 97.967,72.794 98.740,72.794 86.468 L 72.793 75.313 72.411 74.873 C 71.039 73.294,60.732 73.401,58.994 75.011 L 58.549 75.424 58.483 80.470 C 58.399 86.913,58.835 86.295,54.379 86.295 C 51.502 86.295,51.027 86.257,50.821 86.009 C 50.625 85.773,50.569 82.986,50.497 70.056 L 50.411 54.388 50.022 53.769 C 49.253 52.545,48.439 52.395,42.695 52.420 C 40.090 52.431,37.765 52.490,37.527 52.550 M81.796 52.550 C 79.863 53.036,79.983 51.479,79.983 76.117 L 79.983 97.510 80.347 97.998 C 81.016 98.895,80.961 98.892,96.792 98.906 C 113.502 98.921,113.584 98.915,114.269 97.644 C 114.729 96.792,114.814 89.921,114.382 88.494 C 113.749 86.405,113.799 86.414,103.682 86.345 L 95.389 86.288 94.973 85.902 C 94.461 85.429,94.513 83.189,95.061 82.089 L 95.374 81.461 100.389 81.444 C 109.384 81.413,109.122 81.589,109.122 75.543 C 109.122 69.407,109.506 69.693,101.262 69.693 L 95.444 69.693 95.110 68.958 C 94.693 68.040,94.663 66.422,95.048 65.612 L 95.327 65.024 103.478 65.016 C 111.672 65.008,112.919 64.928,113.480 64.367 C 113.594 64.253,113.789 64.159,113.913 64.159 C 114.036 64.159,114.137 64.049,114.137 63.914 C 114.137 63.779,114.235 63.637,114.354 63.597 C 114.743 63.468,114.762 55.414,114.375 54.648 C 113.910 53.726,113.264 53.086,112.437 52.725 C 111.680 52.396,83.060 52.232,81.796 52.550 M48.636 53.361 C 50.056 54.098,49.978 53.119,49.978 70.269 C 49.978 85.967,49.968 85.717,50.657 86.461 C 51.273 87.126,57.799 86.901,58.510 86.190 L 58.943 85.756 59.000 80.735 L 59.058 75.713 59.569 75.305 C 60.710 74.395,65.599 74.034,70.338 74.509 C 72.478 74.724,72.287 73.554,72.287 86.484 L 72.287 97.582 71.865 97.974 C 71.233 98.560,69.539 98.609,52.455 98.544 C 35.154 98.478,36.519 98.616,36.288 96.913 C 36.044 95.107,36.132 55.469,36.382 54.821 C 37.072 53.028,36.993 53.112,38.038 53.039 C 41.138 52.821,47.995 53.029,48.636 53.361 M113.000 54.005 C 114.216 55.271,114.198 55.179,114.103 59.611 C 113.993 64.812,114.935 64.376,103.530 64.500 L 95.084 64.591 94.774 64.974 C 94.075 65.838,94.142 68.814,94.881 69.692 L 95.296 70.185 101.439 70.242 L 107.582 70.298 108.093 70.884 L 108.604 71.469 108.604 75.519 L 108.604 79.569 108.087 80.122 L 107.571 80.674 101.472 80.761 C 97.852 80.812,95.267 80.918,95.111 81.020 C 94.246 81.589,93.907 85.358,94.644 86.215 L 95.084 86.727 103.530 86.814 C 112.477 86.905,113.273 86.985,113.273 87.785 C 113.273 87.916,113.332 88.024,113.405 88.024 C 114.650 88.024,114.350 97.202,113.081 97.952 C 111.760 98.732,82.192 98.890,81.163 98.123 C 80.416 97.566,80.405 97.209,80.456 75.065 L 80.502 54.734 80.947 53.956 C 81.542 52.917,80.655 52.969,97.654 52.988 L 112.039 53.005 113.000 54.005 M176.926 64.442 C 175.214 64.863,175.196 64.904,175.189 68.433 C 175.184 71.388,175.218 71.619,175.858 72.957 C 176.116 73.496,177.936 73.868,179.819 73.768 C 181.920 73.656,181.967 73.635,183.066 72.349 L 183.917 71.354 183.974 69.244 C 184.019 67.577,183.974 67.024,183.758 66.607 C 183.608 66.316,183.485 65.933,183.485 65.754 C 183.485 65.416,182.958 64.850,182.357 64.541 C 181.702 64.205,178.151 64.140,176.926 64.442 M221.790 64.673 C 221.220 64.899,220.887 65.364,219.990 67.186 C 219.666 67.846,219.570 68.188,219.097 70.385 C 218.804 71.748,218.422 72.847,218.124 73.183 C 217.763 73.591,218.748 74.533,219.883 74.864 C 220.847 75.145,225.603 75.028,226.201 74.708 C 227.145 74.202,227.115 73.344,226.078 71.153 C 225.760 70.481,225.420 69.431,225.322 68.818 C 224.816 65.633,223.440 64.018,221.790 64.673 M182.279 65.090 C 183.196 65.487,183.216 71.172,182.303 72.085 C 181.677 72.711,177.086 72.762,177.086 72.143 C 177.086 72.078,176.853 71.922,176.567 71.796 L 176.048 71.566 176.048 68.489 L 176.048 65.412 176.524 65.225 C 177.416 64.874,181.555 64.777,182.279 65.090 M223.010 65.499 C 223.244 65.761,223.621 66.169,223.848 66.407 C 224.264 66.843,224.816 68.797,224.816 69.830 C 224.816 70.570,225.436 72.237,225.928 72.823 C 226.165 73.104,226.320 73.434,226.273 73.555 C 226.017 74.224,220.500 74.464,219.630 73.845 L 219.146 73.500 219.469 72.072 C 219.647 71.287,219.794 70.356,219.797 70.004 C 219.801 69.321,220.095 68.507,220.438 68.223 C 220.785 67.937,221.530 66.302,221.530 65.829 C 221.530 64.984,222.379 64.795,223.010 65.499 " stroke="none" fill="#ec7c94" fill-rule="evenodd"></path><path id="path4" d="M139.151 21.687 C 138.773 21.804,138.229 22.180,137.897 22.553 L 137.311 23.212 137.311 88.563 L 137.311 153.915 137.752 154.303 C 139.004 155.403,140.055 155.386,141.162 154.245 C 141.425 153.974,141.970 153.663,142.372 153.555 C 143.680 153.203,144.476 152.802,145.093 152.183 C 145.558 151.717,145.953 151.521,146.797 151.335 C 147.680 151.142,148.050 150.950,148.675 150.359 C 149.191 149.871,149.724 149.556,150.256 149.422 C 151.390 149.137,152.138 148.738,152.942 147.990 C 153.386 147.576,153.805 147.341,154.100 147.341 C 154.798 147.341,155.830 146.859,156.507 146.218 C 157.050 145.703,158.399 145.093,158.994 145.093 C 159.119 145.093,159.382 144.957,159.579 144.790 C 159.775 144.624,160.118 144.333,160.340 144.144 C 160.927 143.645,161.815 143.191,162.205 143.191 C 162.747 143.191,163.470 142.810,164.036 142.228 C 164.383 141.871,165.030 141.528,165.938 141.219 C 166.871 140.901,167.510 140.558,167.920 140.155 C 168.253 139.828,168.696 139.560,168.905 139.560 C 169.113 139.559,169.332 139.481,169.390 139.386 C 169.449 139.291,169.651 139.213,169.840 139.213 C 170.314 139.213,171.488 138.592,171.609 138.277 C 171.717 137.995,172.944 137.311,173.342 137.311 C 173.852 137.311,175.105 136.621,175.526 136.108 C 175.854 135.709,176.238 135.508,177.072 135.297 C 178.355 134.973,179.277 134.478,179.416 134.039 C 179.479 133.842,179.899 133.619,180.591 133.416 C 182.084 132.979,182.620 132.699,183.253 132.026 C 183.554 131.707,184.021 131.399,184.291 131.343 C 185.908 131.007,187.116 130.406,187.116 129.939 C 187.116 129.819,187.681 129.544,188.370 129.328 C 189.657 128.924,190.921 128.260,190.921 127.988 C 190.921 127.782,192.233 127.108,192.634 127.108 C 193.185 127.108,194.100 126.639,194.626 126.087 C 194.959 125.737,195.545 125.426,196.353 125.171 C 197.459 124.822,197.903 124.565,198.646 123.846 C 198.780 123.717,199.373 123.436,199.963 123.222 C 201.567 122.642,201.717 122.571,201.868 122.322 C 201.944 122.196,202.093 122.093,202.200 122.093 C 202.307 122.093,202.544 121.956,202.728 121.790 C 203.045 121.503,207.153 121.483,282.404 121.401 C 361.410 121.315,361.747 121.313,362.127 120.969 C 363.050 120.134,362.992 123.440,362.992 71.526 C 362.992 33.367,362.947 23.263,362.776 22.881 C 362.461 22.182,362.122 21.895,361.325 21.656 C 360.305 21.350,140.138 21.381,139.151 21.687 M361.666 22.655 L 362.121 23.087 362.124 71.433 L 362.127 119.780 361.642 120.244 L 361.157 120.709 282.567 120.712 C 195.971 120.714,202.455 120.631,201.165 121.764 C 200.505 122.343,200.231 122.476,199.008 122.808 C 198.543 122.935,197.880 123.305,197.475 123.665 C 197.082 124.013,196.322 124.442,195.786 124.618 C 194.804 124.940,193.631 125.570,193.442 125.875 C 193.324 126.066,192.176 126.604,191.202 126.925 C 190.833 127.046,190.133 127.448,189.645 127.818 C 189.158 128.187,188.672 128.490,188.565 128.490 C 188.218 128.492,186.697 129.222,186.165 129.642 C 185.880 129.868,185.567 130.116,185.470 130.192 C 185.373 130.269,185.140 130.378,184.951 130.435 C 183.862 130.760,182.817 131.252,182.408 131.631 C 181.968 132.039,181.598 132.224,179.810 132.933 C 179.406 133.093,178.880 133.393,178.642 133.600 C 178.031 134.132,176.122 135.063,175.642 135.063 C 175.519 135.063,175.119 135.330,174.753 135.656 C 174.386 135.982,173.730 136.378,173.294 136.535 C 171.687 137.115,171.504 137.205,170.860 137.743 C 170.499 138.045,169.982 138.375,169.710 138.477 C 167.867 139.169,167.483 139.360,166.914 139.862 C 166.564 140.171,166.183 140.423,166.067 140.424 C 165.855 140.424,165.028 140.752,163.976 141.254 C 163.662 141.404,163.231 141.687,163.020 141.883 C 162.631 142.243,161.804 142.642,160.615 143.042 C 160.259 143.161,159.748 143.458,159.481 143.701 C 159.213 143.943,158.804 144.228,158.572 144.334 C 157.457 144.842,156.825 145.093,156.666 145.093 C 156.570 145.093,156.087 145.389,155.591 145.751 C 154.677 146.418,153.585 146.995,153.236 146.995 C 152.981 146.995,152.445 147.305,151.514 147.990 C 151.094 148.299,150.469 148.632,150.126 148.731 C 149.433 148.930,148.779 149.268,147.710 149.981 C 147.316 150.244,146.546 150.624,146.000 150.824 C 145.454 151.025,144.617 151.478,144.142 151.832 C 143.296 152.460,142.680 152.752,141.803 152.941 C 141.562 152.993,141.044 153.310,140.651 153.647 C 139.676 154.482,139.207 154.407,138.735 153.342 C 138.391 152.564,138.425 23.072,138.770 22.727 C 138.907 22.590,139.199 22.406,139.419 22.318 C 139.663 22.219,182.709 22.170,250.514 22.190 L 361.210 22.222 361.666 22.655 M38.124 51.856 C 37.406 51.922,36.709 52.095,36.430 52.279 C 35.951 52.593,35.847 52.781,35.453 54.042 C 35.334 54.423,35.110 54.878,34.955 55.055 C 34.525 55.545,34.431 95.176,34.858 96.001 C 35.010 96.296,35.247 96.969,35.385 97.496 C 35.896 99.460,34.799 99.351,54.129 99.351 C 72.126 99.351,72.069 99.354,72.763 98.445 L 73.238 97.822 73.287 86.654 C 73.340 74.244,73.361 74.490,72.222 73.953 C 69.740 72.783,60.084 73.163,58.539 74.492 L 58.020 74.938 57.970 80.228 C 57.927 84.910,57.888 85.541,57.635 85.733 C 57.217 86.048,51.306 86.039,51.043 85.722 C 50.911 85.564,50.840 80.700,50.806 69.496 L 50.757 53.496 50.290 52.885 C 49.977 52.475,49.578 52.202,49.079 52.058 C 48.250 51.818,40.183 51.669,38.124 51.856 M82.309 51.860 C 80.588 52.023,80.079 52.455,79.720 54.059 C 79.616 54.521,79.438 54.956,79.325 55.026 C 78.982 55.238,78.935 95.317,79.277 96.003 C 79.417 96.283,79.583 96.880,79.646 97.327 C 79.943 99.433,79.054 99.316,95.288 99.396 C 112.758 99.483,114.260 99.374,114.865 97.968 C 115.192 97.210,115.183 88.161,114.855 87.384 C 114.282 86.028,113.675 85.949,103.774 85.949 C 94.231 85.949,95.025 86.114,95.151 84.160 C 95.267 82.346,94.801 82.490,100.543 82.490 C 106.278 82.490,107.384 82.361,108.148 81.600 C 108.421 81.329,108.712 81.107,108.795 81.107 C 109.315 81.107,109.468 79.819,109.468 75.457 C 109.468 70.372,109.477 70.408,107.959 69.400 L 106.968 68.742 101.219 68.686 L 95.470 68.631 95.307 68.042 C 95.218 67.718,95.172 67.315,95.206 67.146 C 95.239 66.978,95.312 66.626,95.367 66.364 L 95.467 65.888 103.582 65.888 C 108.357 65.888,111.737 65.823,111.795 65.729 C 111.849 65.641,112.301 65.439,112.799 65.280 C 115.176 64.520,115.082 64.783,115.083 58.885 C 115.084 53.090,114.986 52.792,112.840 52.053 C 112.106 51.800,84.763 51.627,82.309 51.860 M162.127 52.523 C 161.747 52.682,161.341 52.933,161.225 53.081 C 161.062 53.290,161.013 58.210,161.009 74.803 L 161.003 96.256 161.457 96.956 C 162.233 98.153,162.667 98.229,168.715 98.228 C 174.189 98.227,174.665 98.160,174.665 97.380 C 174.665 97.269,174.801 96.970,174.968 96.716 C 175.229 96.317,175.284 95.637,175.369 91.664 C 175.520 84.718,174.985 85.247,182.059 85.056 C 188.742 84.876,191.676 84.382,192.564 83.287 C 192.659 83.170,192.853 83.019,192.996 82.952 C 193.861 82.543,194.634 82.012,194.797 81.713 C 195.016 81.310,195.891 80.124,196.309 79.663 C 197.271 78.602,197.520 76.645,197.614 69.434 C 197.727 60.710,197.202 57.828,195.237 56.377 C 195.172 56.329,194.992 56.041,194.836 55.737 C 194.554 55.186,193.217 54.281,191.958 53.790 C 191.626 53.660,191.236 53.461,191.094 53.348 C 190.743 53.072,190.317 52.905,189.192 52.605 C 187.647 52.193,163.099 52.119,162.127 52.523 M212.970 52.343 C 211.715 52.619,211.359 53.033,210.732 54.950 C 210.568 55.450,210.363 55.858,210.276 55.858 C 210.188 55.858,210.117 55.949,210.117 56.061 C 210.117 56.172,210.006 56.386,209.870 56.536 C 209.653 56.776,209.020 58.782,208.775 60.009 C 208.727 60.246,208.597 60.558,208.486 60.700 C 208.046 61.265,207.390 62.747,207.107 63.813 C 206.603 65.711,206.467 66.070,205.972 66.813 C 205.708 67.208,205.394 67.959,205.272 68.482 C 204.910 70.040,204.458 71.470,204.124 72.114 C 203.038 74.210,202.861 76.268,202.857 86.868 C 202.853 96.179,202.879 96.479,203.796 97.630 L 204.204 98.141 209.341 98.192 C 216.965 98.267,217.034 98.212,217.034 92.131 C 217.034 86.340,216.742 86.653,222.136 86.649 C 228.002 86.645,227.883 86.524,227.912 92.477 C 227.927 95.396,227.966 95.846,228.232 96.126 C 228.398 96.302,228.690 96.666,228.880 96.936 C 229.070 97.206,229.391 97.607,229.592 97.827 L 229.958 98.227 235.186 98.227 C 240.617 98.227,241.418 98.124,241.418 97.426 C 241.418 97.312,241.480 97.193,241.555 97.161 C 241.630 97.129,241.903 96.824,242.160 96.482 L 242.629 95.860 242.629 86.676 C 242.629 77.416,242.575 76.473,241.977 75.283 C 241.890 75.109,241.724 74.384,241.607 73.671 C 241.254 71.511,240.660 69.607,240.203 69.174 C 239.963 68.947,239.334 67.042,239.060 65.716 C 238.944 65.155,238.672 64.583,238.113 63.727 C 237.679 63.063,237.605 62.850,237.273 61.306 C 237.086 60.434,236.710 59.428,236.457 59.121 C 236.107 58.696,235.366 56.864,235.356 56.399 C 235.332 55.265,234.056 53.313,232.855 52.570 C 232.328 52.245,214.351 52.039,212.970 52.343 M248.158 52.522 C 247.923 52.685,247.630 52.915,247.508 53.035 C 247.332 53.207,247.296 55.074,247.335 62.121 C 247.390 71.976,247.299 71.207,248.606 72.919 C 248.933 73.347,249.200 73.847,249.200 74.030 C 249.200 74.213,249.278 74.362,249.373 74.362 C 249.468 74.362,249.546 74.463,249.546 74.587 C 249.546 74.710,249.838 75.124,250.195 75.505 C 250.874 76.232,251.170 76.640,251.436 77.216 C 251.523 77.406,251.990 77.974,252.473 78.478 C 252.956 78.982,253.351 79.508,253.351 79.646 C 253.351 79.784,253.654 80.191,254.025 80.551 C 254.689 81.195,255.330 82.110,255.535 82.706 C 255.592 82.873,255.708 83.009,255.792 83.009 C 255.876 83.009,255.945 83.107,255.945 83.227 C 255.945 83.347,256.095 83.539,256.279 83.653 C 256.463 83.768,256.884 84.325,257.216 84.891 C 257.548 85.457,258.133 86.243,258.516 86.638 L 259.214 87.357 259.265 91.711 C 259.346 98.538,258.975 98.227,267.055 98.227 C 273.142 98.227,272.829 98.300,273.638 96.711 L 274.235 95.540 274.310 91.912 C 274.371 89.005,274.443 88.163,274.672 87.678 C 275.344 86.262,276.053 85.137,276.579 84.652 C 276.889 84.367,277.253 83.900,277.390 83.614 C 277.526 83.329,277.951 82.745,278.334 82.317 C 278.718 81.889,279.185 81.247,279.374 80.891 C 279.562 80.534,279.776 80.242,279.849 80.242 C 279.923 80.242,279.983 80.148,279.983 80.033 C 279.983 79.918,280.247 79.549,280.571 79.212 C 280.895 78.875,281.306 78.327,281.485 77.994 C 282.017 77.005,282.304 76.610,282.489 76.610 C 282.657 76.610,283.614 75.228,283.614 74.985 C 283.614 74.920,283.901 74.556,284.252 74.177 C 284.958 73.414,285.172 72.995,285.570 71.595 C 285.719 71.072,285.937 70.333,286.054 69.952 C 286.360 68.961,286.489 56.028,286.209 54.431 C 286.030 53.414,285.923 53.196,285.375 52.745 L 284.746 52.227 279.439 52.227 C 274.066 52.227,273.072 52.341,273.066 52.962 C 273.066 53.033,272.949 53.091,272.806 53.091 C 272.659 53.091,272.546 53.246,272.546 53.448 C 272.546 53.645,272.449 53.976,272.330 54.183 C 272.176 54.454,272.085 56.187,272.010 60.268 C 271.886 67.100,271.789 67.694,270.540 69.270 C 270.235 69.655,269.737 70.434,269.434 70.999 C 268.735 72.302,268.778 72.262,267.773 72.536 C 267.307 72.663,266.803 72.818,266.652 72.880 C 266.465 72.958,266.136 72.739,265.615 72.192 C 265.195 71.750,264.652 71.183,264.408 70.930 C 263.994 70.501,263.817 70.210,263.097 68.785 C 262.941 68.476,262.636 68.029,262.419 67.791 C 261.607 66.901,261.479 65.736,261.479 59.269 L 261.479 53.305 260.927 52.766 L 260.375 52.227 254.480 52.227 C 249.202 52.227,248.541 52.257,248.158 52.522 M302.032 52.333 C 301.842 52.371,301.266 52.488,300.752 52.592 C 300.238 52.697,299.576 52.929,299.282 53.108 C 298.987 53.287,298.163 53.720,297.449 54.070 C 296.736 54.420,295.997 54.890,295.806 55.115 C 295.616 55.341,295.067 55.931,294.586 56.427 C 293.858 57.177,293.664 57.517,293.432 58.452 C 293.278 59.070,292.952 60.345,292.707 61.285 C 292.216 63.167,292.036 70.072,292.443 71.424 C 292.543 71.756,292.691 72.378,292.771 72.806 C 292.851 73.234,292.998 73.818,293.097 74.103 C 293.196 74.388,293.374 74.958,293.493 75.369 C 293.774 76.345,295.513 78.196,296.598 78.673 C 297.033 78.865,297.578 79.168,297.809 79.348 C 298.862 80.169,299.677 80.351,304.972 80.943 C 305.923 81.049,307.051 81.236,307.479 81.358 C 308.264 81.581,309.803 81.935,311.716 82.331 C 313.273 82.653,313.690 83.385,313.110 84.774 C 312.567 86.072,312.182 86.122,302.619 86.122 C 291.793 86.122,292.385 85.797,292.289 91.805 L 292.231 95.500 292.884 96.475 C 293.243 97.011,293.713 97.624,293.929 97.838 L 294.321 98.227 305.786 98.223 C 317.437 98.219,318.096 98.186,319.498 97.545 C 319.879 97.371,320.891 97.010,321.747 96.742 C 323.003 96.349,323.420 96.129,323.912 95.598 C 324.247 95.237,324.579 94.942,324.649 94.942 C 324.853 94.942,325.811 94.037,325.811 93.843 C 325.811 93.746,326.109 93.312,326.474 92.878 C 326.840 92.443,327.233 91.911,327.348 91.694 C 328.270 89.959,328.272 76.684,327.350 75.054 C 326.567 73.670,323.186 70.558,322.465 70.558 C 322.050 70.558,319.097 69.864,317.683 69.434 C 316.448 69.058,310.822 68.308,309.251 68.309 C 308.047 68.310,307.479 67.676,307.479 66.331 C 307.479 64.493,306.935 64.609,316.126 64.490 C 326.713 64.352,325.724 65.011,325.724 58.099 L 325.724 53.335 325.213 52.824 L 324.702 52.313 313.540 52.288 C 307.401 52.274,302.222 52.294,302.032 52.333 M48.142 52.591 C 49.268 52.895,49.606 53.107,50.022 53.769 L 50.411 54.388 50.497 70.056 C 50.569 82.986,50.625 85.773,50.821 86.009 C 51.027 86.257,51.502 86.295,54.379 86.295 C 58.835 86.295,58.399 86.913,58.483 80.470 L 58.549 75.424 58.994 75.011 C 60.103 73.983,61.347 73.793,66.395 73.882 C 71.301 73.968,71.679 74.031,72.411 74.873 L 72.793 75.313 72.794 86.468 C 72.794 98.740,72.860 97.967,71.761 98.591 C 71.194 98.914,38.368 99.058,37.289 98.742 C 35.543 98.232,35.646 99.682,35.639 75.659 L 35.633 55.080 36.055 54.053 C 36.482 53.014,36.743 52.748,37.527 52.550 C 38.312 52.351,47.385 52.387,48.142 52.591 M112.437 52.725 C 113.264 53.086,113.910 53.726,114.375 54.648 C 114.762 55.414,114.743 63.468,114.354 63.597 C 114.235 63.637,114.137 63.779,114.137 63.914 C 114.137 64.049,114.036 64.159,113.913 64.159 C 113.789 64.159,113.594 64.253,113.480 64.367 C 112.919 64.928,111.672 65.008,103.478 65.016 L 95.327 65.024 95.048 65.612 C 94.663 66.422,94.693 68.040,95.110 68.958 L 95.444 69.693 101.262 69.693 C 109.506 69.693,109.122 69.407,109.122 75.543 C 109.122 81.589,109.384 81.413,100.389 81.444 L 95.374 81.461 95.061 82.089 C 94.513 83.189,94.461 85.429,94.973 85.902 L 95.389 86.288 103.682 86.345 C 113.799 86.414,113.749 86.405,114.382 88.494 C 114.814 89.921,114.729 96.792,114.269 97.644 C 113.584 98.915,113.502 98.921,96.792 98.906 C 80.961 98.892,81.016 98.895,80.347 97.998 L 79.983 97.510 79.983 76.117 C 79.983 51.479,79.863 53.036,81.796 52.550 C 83.060 52.232,111.680 52.396,112.437 52.725 M186.760 52.938 C 188.356 53.092,188.889 53.214,189.404 53.543 C 189.759 53.770,190.119 53.956,190.204 53.956 C 190.290 53.956,190.457 54.073,190.575 54.215 C 190.693 54.358,190.965 54.475,191.179 54.475 C 192.302 54.475,194.061 55.773,194.742 57.102 C 194.921 57.454,195.344 58.008,195.680 58.335 C 196.721 59.346,196.838 60.557,196.762 69.516 C 196.690 77.876,196.678 77.967,195.524 79.156 C 194.931 79.766,194.752 80.063,194.385 81.043 C 194.240 81.430,193.975 81.671,193.459 81.888 C 193.062 82.055,192.503 82.292,192.218 82.416 C 191.933 82.539,191.429 82.881,191.099 83.177 C 190.199 83.981,189.888 84.016,182.084 84.198 C 174.067 84.384,174.787 83.754,174.660 90.705 C 174.531 97.802,175.113 97.190,168.497 97.190 L 163.735 97.190 162.847 96.714 C 162.359 96.453,161.863 96.122,161.744 95.979 C 161.442 95.615,161.507 54.042,161.810 53.528 C 161.939 53.309,162.345 53.115,162.934 52.989 C 164.206 52.719,184.043 52.676,186.760 52.938 M232.478 52.985 C 232.650 53.068,232.954 53.483,233.153 53.907 C 233.353 54.332,233.700 54.763,233.926 54.866 C 234.151 54.969,234.376 55.253,234.424 55.499 C 234.473 55.744,234.588 56.184,234.680 56.476 C 234.771 56.768,234.847 57.214,234.847 57.467 C 234.847 58.109,235.342 59.321,235.814 59.836 C 236.311 60.376,236.748 61.402,236.751 62.035 C 236.755 62.800,237.359 64.531,237.790 65.014 C 238.318 65.605,238.566 66.255,238.817 67.704 C 239.050 69.047,239.394 69.907,239.958 70.558 C 240.377 71.041,240.899 72.947,240.899 73.990 C 240.899 74.365,241.035 75.283,241.202 76.030 C 241.697 78.253,241.660 95.554,241.159 96.088 C 240.968 96.291,240.688 96.623,240.537 96.826 C 240.124 97.377,230.251 97.320,229.937 96.765 C 229.831 96.579,229.648 96.320,229.529 96.191 C 229.197 95.828,229.164 95.478,229.084 91.342 C 228.980 86.030,229.231 86.235,222.741 86.151 C 216.054 86.064,216.468 85.712,216.344 91.595 C 216.251 96.039,216.196 96.298,215.348 96.320 C 215.229 96.323,215.132 96.386,215.132 96.461 C 215.132 97.559,204.601 97.521,203.868 96.420 C 203.678 96.135,203.622 94.337,203.582 87.178 C 203.522 76.259,203.610 75.064,204.583 73.584 C 205.063 72.855,205.285 72.056,205.535 70.162 C 205.665 69.174,206.015 68.282,206.397 67.965 C 206.704 67.710,207.350 66.390,207.350 66.017 C 207.350 65.440,208.106 62.849,208.308 62.731 C 208.781 62.456,209.249 61.406,209.486 60.085 C 209.766 58.528,210.109 57.631,210.594 57.193 C 210.777 57.027,211.065 56.445,211.234 55.899 C 211.404 55.354,211.650 54.651,211.781 54.339 C 211.912 54.027,212.019 53.659,212.019 53.521 C 212.019 53.383,212.233 53.226,212.495 53.172 C 212.756 53.118,213.204 53.006,213.489 52.923 C 214.159 52.728,232.066 52.786,232.478 52.985 M260.564 53.140 C 260.846 53.422,260.879 54.038,260.962 60.509 C 261.056 67.958,261.026 67.691,261.855 68.526 C 262.021 68.692,262.209 68.828,262.274 68.828 C 262.497 68.828,262.851 69.434,262.857 69.826 C 262.867 70.596,264.191 72.247,265.770 73.458 L 266.516 74.031 267.087 73.678 C 267.402 73.484,267.805 73.324,267.984 73.324 C 268.676 73.323,269.425 72.653,269.901 71.610 C 270.160 71.043,270.537 70.505,270.738 70.413 C 271.126 70.236,271.838 68.901,272.216 67.641 C 272.340 67.225,272.602 66.682,272.797 66.435 C 273.135 66.006,273.157 65.684,273.263 59.754 C 273.324 56.327,273.382 53.503,273.392 53.478 C 273.729 52.660,283.820 52.313,284.825 53.085 L 285.257 53.417 285.314 60.907 C 285.355 66.247,285.308 68.906,285.151 70.173 L 284.931 71.950 284.020 73.026 C 283.506 73.634,283.012 74.428,282.888 74.849 C 282.734 75.371,282.500 75.699,282.111 75.940 C 281.797 76.133,281.381 76.639,281.157 77.096 C 280.765 77.900,280.445 78.340,280.254 78.340 C 280.062 78.340,279.496 79.002,279.383 79.360 C 279.319 79.560,279.208 79.723,279.134 79.723 C 279.061 79.723,278.898 80.035,278.772 80.415 C 278.647 80.796,278.440 81.107,278.312 81.107 C 278.185 81.107,278.080 81.224,278.080 81.366 C 278.080 81.509,277.969 81.626,277.832 81.626 C 277.695 81.626,277.334 82.131,277.030 82.750 C 276.726 83.368,276.421 83.874,276.354 83.874 C 276.054 83.874,275.410 84.628,275.054 85.397 C 274.840 85.859,274.374 86.519,274.019 86.864 L 273.373 87.491 273.262 91.804 C 273.166 95.570,273.113 96.159,272.849 96.450 C 272.683 96.634,272.546 96.876,272.546 96.987 C 272.546 97.338,262.608 97.265,261.313 96.905 C 259.953 96.527,259.964 96.567,259.867 91.360 C 259.780 86.690,259.638 85.984,258.728 85.695 C 258.556 85.640,258.269 85.266,258.090 84.864 C 257.643 83.858,257.196 83.219,256.334 82.359 C 255.930 81.956,255.599 81.488,255.599 81.319 C 255.599 81.000,255.144 80.475,254.358 79.890 C 254.104 79.701,253.841 79.294,253.773 78.986 C 253.661 78.478,253.408 78.160,252.659 77.587 C 252.516 77.478,252.170 76.943,251.890 76.399 C 251.402 75.452,250.837 74.714,250.370 74.415 C 250.048 74.210,249.546 73.239,249.546 72.822 C 249.546 72.623,249.248 72.168,248.884 71.811 C 247.837 70.786,247.789 70.299,247.850 61.271 C 247.887 55.825,247.962 53.396,248.096 53.262 C 248.697 52.660,259.974 52.550,260.564 53.140 M324.452 52.995 C 325.489 53.289,325.664 62.368,324.653 63.467 C 324.450 63.689,323.259 63.735,316.454 63.784 C 306.741 63.853,306.438 63.932,306.717 66.321 C 306.976 68.544,307.241 68.729,310.679 69.083 C 312.274 69.248,313.483 69.474,314.224 69.746 C 314.842 69.973,316.010 70.252,316.818 70.365 C 322.399 71.149,322.556 71.185,323.122 71.832 C 323.412 72.164,323.979 72.598,324.383 72.796 C 324.879 73.040,325.195 73.344,325.357 73.732 C 325.488 74.047,325.869 74.571,326.203 74.896 C 327.146 75.814,327.192 76.204,327.193 83.340 C 327.194 90.358,327.078 91.413,326.260 91.793 C 326.060 91.886,325.772 92.224,325.619 92.544 C 325.466 92.864,325.242 93.334,325.121 93.588 C 325.000 93.843,324.737 94.093,324.535 94.146 C 324.090 94.261,323.397 94.867,323.008 95.480 C 322.798 95.811,322.521 95.961,321.974 96.042 C 320.448 96.266,319.480 96.446,318.807 96.630 C 316.796 97.181,316.107 97.207,305.337 97.156 C 294.689 97.104,294.456 97.096,294.269 96.759 C 294.163 96.570,293.941 96.229,293.774 96.001 C 293.448 95.554,293.341 91.519,293.581 88.682 C 293.749 86.698,293.048 86.831,303.675 86.774 C 313.358 86.723,313.010 86.759,313.615 85.735 C 314.547 84.158,313.850 81.983,312.322 81.696 C 311.989 81.633,311.600 81.491,311.457 81.380 C 310.679 80.775,308.216 80.317,304.887 80.158 C 301.328 79.988,299.179 79.562,299.179 79.027 C 299.179 78.934,299.071 78.859,298.940 78.859 C 298.809 78.859,298.616 78.755,298.510 78.627 C 298.405 78.500,297.878 78.290,297.339 78.161 C 296.537 77.969,296.279 77.812,295.910 77.292 C 295.663 76.943,295.183 76.458,294.845 76.214 C 294.122 75.694,293.857 74.735,293.639 71.855 C 293.345 67.967,293.543 60.333,293.968 59.144 C 294.054 58.906,294.223 58.381,294.344 57.977 C 294.465 57.572,294.637 57.242,294.726 57.242 C 295.117 57.242,295.932 56.459,296.175 55.851 C 296.384 55.329,296.557 55.165,296.988 55.079 C 297.289 55.020,297.769 54.865,298.054 54.736 C 298.340 54.606,298.836 54.403,299.158 54.284 C 299.479 54.165,299.929 53.882,300.156 53.654 C 300.553 53.258,301.206 53.094,303.329 52.859 C 304.432 52.737,323.986 52.862,324.452 52.995 M175.310 64.172 L 174.665 64.703 174.665 68.761 C 174.665 74.623,174.608 74.548,179.177 74.670 L 182.046 74.747 182.722 74.069 C 183.094 73.696,183.748 73.019,184.176 72.564 L 184.955 71.736 184.955 69.029 C 184.955 64.372,184.149 63.640,179.022 63.640 L 175.954 63.640 175.310 64.172 M221.217 64.157 C 220.756 64.355,220.598 64.507,219.871 65.456 C 219.194 66.339,218.764 67.442,218.764 68.292 C 218.764 69.469,218.240 71.401,217.832 71.728 C 217.213 72.224,216.933 73.352,217.210 74.233 C 217.754 75.961,218.148 76.092,222.818 76.092 L 226.539 76.092 227.059 75.184 C 227.860 73.788,227.521 70.543,226.495 69.782 C 226.193 69.558,225.683 68.063,225.673 67.371 C 225.638 64.886,223.356 63.241,221.217 64.157 M182.357 64.541 C 182.958 64.850,183.485 65.416,183.485 65.754 C 183.485 65.933,183.608 66.316,183.758 66.607 C 183.974 67.024,184.019 67.577,183.974 69.244 L 183.917 71.354 183.066 72.349 C 181.967 73.635,181.920 73.656,179.819 73.768 C 177.936 73.868,176.116 73.496,175.858 72.957 C 175.218 71.619,175.184 71.388,175.189 68.433 C 175.196 64.904,175.214 64.863,176.926 64.442 C 178.151 64.140,181.702 64.205,182.357 64.541 M223.542 64.959 C 224.411 65.320,224.953 66.493,225.322 68.818 C 225.420 69.431,225.760 70.481,226.078 71.153 C 227.115 73.344,227.145 74.202,226.201 74.708 C 225.603 75.028,220.847 75.145,219.883 74.864 C 218.748 74.533,217.763 73.591,218.124 73.183 C 218.422 72.847,218.804 71.748,219.097 70.385 C 219.657 67.786,219.684 67.706,220.608 65.975 C 221.380 64.528,221.993 64.316,223.542 64.959 " stroke="none" fill="#f096aa" fill-rule="evenodd"></path></g></svg>