<?xml version="1.0" standalone="no"?>
<!DOCTYPE svg PUBLIC "-//W3C//DTD SVG 20010904//EN"
 "http://www.w3.org/TR/2001/REC-SVG-20010904/DTD/svg10.dtd">
<svg version="1.0" xmlns="http://www.w3.org/2000/svg"
 width="200.000000pt" height="200.000000pt" viewBox="0 0 200.000000 200.000000"
 preserveAspectRatio="xMidYMid meet">

<g transform="translate(0.000000,200.000000) scale(0.100000,-0.100000)"
fill="#000000" stroke="none">
<path d="M700 1005 c0 -179 3 -325 6 -325 4 0 75 36 159 80 l152 80 397 0 396
0 0 245 0 245 -555 0 -555 0 0 -325z m281 158 c18 -21 18 -105 1 -126 -8 -9
-34 -19 -58 -23 -40 -6 -44 -9 -44 -35 0 -26 -3 -29 -35 -29 l-35 0 0 115 0
115 79 0 c61 0 82 -4 92 -17z m218 -47 c14 -41 21 -80 19 -112 -3 -49 -3 -49
-38 -49 -31 0 -35 3 -38 28 -3 21 -9 27 -28 27 -20 0 -24 -5 -24 -30 0 -28 -3
-30 -35 -30 l-35 0 0 64 c0 35 6 79 14 97 7 19 16 42 19 52 5 13 18 17 65 17
l58 0 23 -64z m111 31 c0 -18 7 -42 15 -53 13 -16 16 -17 25 -4 5 8 10 32 10
53 0 37 0 37 40 37 l40 0 0 -43 c0 -33 -8 -54 -29 -84 -16 -23 -31 -54 -33
-69 -3 -26 -8 -29 -40 -32 -36 -3 -38 -1 -38 25 0 15 -14 46 -30 67 -24 31
-30 50 -30 88 l0 48 35 0 c33 0 35 -2 35 -33z m320 3 c0 -29 -2 -30 -45 -30
-25 0 -45 -4 -45 -10 0 -5 12 -10 28 -10 47 0 72 -25 72 -74 0 -63 -21 -78
-106 -74 -67 3 -69 4 -72 31 -3 26 -2 27 47 27 62 0 75 16 21 25 -22 4 -47 13
-55 22 -20 19 -19 73 1 101 13 19 24 22 85 22 l69 0 0 -30z"/>
<path d="M880 1100 c0 -13 7 -20 20 -20 13 0 20 7 20 20 0 13 -7 20 -20 20
-13 0 -20 -7 -20 -20z"/>
<path d="M1106 1104 c-10 -26 -7 -34 13 -34 14 0 18 5 14 20 -7 27 -20 34 -27
14z"/>
<path d="M190 1065 l0 -115 90 0 90 0 0 60 0 60 -35 0 c-32 0 -35 -2 -35 -30
0 -23 -4 -30 -20 -30 -18 0 -20 7 -20 85 l0 85 -35 0 -35 0 0 -115z"/>
<path d="M410 1065 l0 -115 86 0 85 0 -3 28 c-3 25 -7 27 -50 30 -34 2 -48 7
-48 18 0 9 11 14 35 14 31 0 35 3 35 25 0 22 -4 25 -35 25 -24 0 -35 5 -35 15
0 11 12 15 51 15 49 0 50 1 47 28 -3 27 -4 27 -85 30 l-83 3 0 -116z"/>
</g>
</svg>
